<svg width="18" height="18" viewBox="0 0 18 18" fill="none" xmlns="http://www.w3.org/2000/svg">
<path d="M2 18C1.45 18 0.979167 17.8042 0.5875 17.4125C0.195833 17.0208 0 16.55 0 16V6C0 4.33333 0.583333 2.91667 1.75 1.75C2.91667 0.583333 4.33333 0 6 0H12C13.6667 0 15.0833 0.583333 16.25 1.75C17.4167 2.91667 18 4.33333 18 6V16C18 16.55 17.8042 17.0208 17.4125 17.4125C17.0208 17.8042 16.55 18 16 18H2ZM2 16H4H6H8H10H12H14H16V6C16 4.9 15.6083 3.95833 14.825 3.175C14.0417 2.39167 13.1 2 12 2H6C4.9 2 3.95833 2.39167 3.175 3.175C2.39167 3.95833 2 4.9 2 6V16ZM6 9C5.45 9 4.97917 8.80417 4.5875 8.4125C4.19583 8.02083 4 7.55 4 7C4 6.45 4.19583 5.97917 4.5875 5.5875C4.97917 5.19583 5.45 5 6 5C6.55 5 7.02083 5.19583 7.4125 5.5875C7.80417 5.97917 8 6.45 8 7C8 7.55 7.80417 8.02083 7.4125 8.4125C7.02083 8.80417 6.55 9 6 9ZM12 9C11.45 9 10.9792 8.80417 10.5875 8.4125C10.1958 8.02083 10 7.55 10 7C10 6.45 10.1958 5.97917 10.5875 5.5875C10.9792 5.19583 11.45 5 12 5C12.55 5 13.0208 5.19583 13.4125 5.5875C13.8042 5.97917 14 6.45 14 7C14 7.55 13.8042 8.02083 13.4125 8.4125C13.0208 8.80417 12.55 9 12 9ZM4 16V14C4 13.45 4.19583 12.9792 4.5875 12.5875C4.97917 12.1958 5.45 12 6 12H12C12.55 12 13.0208 12.1958 13.4125 12.5875C13.8042 12.9792 14 13.45 14 14V16H12V14H10V16H8V14H6V16H4ZM2 16H16C16 16 15.6083 16 14.825 16C14.0417 16 13.1 16 12 16H6C4.9 16 3.95833 16 3.175 16C2.39167 16 2 16 2 16Z" fill="#191C1E"/>
</svg>
