<svg width="324" height="45" viewBox="0 0 324 45" fill="none" xmlns="http://www.w3.org/2000/svg">
<rect y="16" width="324" height="6" rx="3" fill="#E0E3E5"/>
<rect x="171.11" y="11" width="16" height="16" rx="8" fill="#2563EB"/>
<path d="M0.657406 41V33.7246H5.52873V34.9616H2.14944V36.7176H5.27101V37.9334H2.14944V39.7631H5.53839V41H0.657406ZM6.23162 41V33.7246H7.89495L10.1921 37.4075C10.3089 37.5965 10.4279 37.8013 10.5491 38.0217C10.6703 38.2422 10.7935 38.4875 10.9185 38.7576C11.0436 39.0278 11.1689 39.3322 11.2943 39.671H11.1414C11.1191 39.3998 11.0984 39.1118 11.0792 38.8071C11.0601 38.5023 11.0444 38.2096 11.0324 37.9288C11.0204 37.648 11.0143 37.4108 11.0143 37.2171V33.7246H12.538V41H10.8702L8.78459 37.661C8.63075 37.4092 8.4884 37.1657 8.35754 36.9306C8.22668 36.6955 8.09059 36.4349 7.94929 36.1486C7.80798 35.8624 7.63934 35.5212 7.44338 35.1251H7.63274C7.65429 35.4759 7.67465 35.8131 7.69382 36.1367C7.713 36.4602 7.72841 36.7527 7.74007 37.0139C7.75172 37.2752 7.75755 37.4894 7.75755 37.6565V41H6.23162ZM16.5778 41.0977C15.8984 41.0977 15.3018 40.9467 14.788 40.6449C14.2743 40.343 13.8736 39.9134 13.5861 39.356C13.2986 38.7986 13.1549 38.1374 13.1549 37.3725C13.1549 36.5852 13.3043 35.9124 13.6033 35.3541C13.9022 34.7958 14.3075 34.3684 14.8191 34.0718C15.3308 33.7752 15.9063 33.627 16.5456 33.627C16.9543 33.627 17.3352 33.6861 17.6882 33.8044C18.0412 33.9228 18.3557 34.0912 18.6317 34.3099C18.9076 34.5285 19.1327 34.787 19.3068 35.0854C19.481 35.3837 19.5936 35.7122 19.6446 36.0708H18.1286C18.0783 35.8962 18.0067 35.7399 17.9138 35.6018C17.8209 35.4637 17.7083 35.3459 17.5761 35.2485C17.4438 35.1511 17.2936 35.077 17.1253 35.0264C16.9571 34.9757 16.7716 34.9504 16.569 34.9504C16.1953 34.9504 15.865 35.0436 15.5782 35.2299C15.2915 35.4162 15.0679 35.6887 14.9077 36.0473C14.7474 36.406 14.6673 36.8424 14.6673 37.3566C14.6673 37.8714 14.7465 38.3086 14.9049 38.6682C15.0632 39.0279 15.286 39.3021 15.5731 39.4909C15.8602 39.6798 16.1987 39.7742 16.5884 39.7742C16.9388 39.7742 17.2399 39.7104 17.4917 39.5828C17.7436 39.4553 17.9364 39.2742 18.0701 39.0397C18.2038 38.8052 18.2707 38.5288 18.2707 38.2104L18.5833 38.2562H16.6918V37.1239H19.7168V38.0332C19.7168 38.6688 19.5821 39.2154 19.3126 39.6731C19.0431 40.1307 18.6723 40.4826 18.2001 40.7286C17.7279 40.9746 17.1871 41.0977 16.5778 41.0977ZM21.8506 33.7246V41H20.3586V33.7246H21.8506ZM22.6662 41V33.7246H24.1582V39.7631H27.2953V41H22.6662Z" fill="#737686"/>
<path d="M147.81 41.0977C147.167 41.0977 146.589 40.9511 146.076 40.6579C145.563 40.3647 145.157 39.9398 144.86 39.3833C144.562 38.8268 144.414 38.1548 144.414 37.3672C144.414 36.5746 144.562 35.8996 144.86 35.3422C145.157 34.7848 145.563 34.3596 146.076 34.0666C146.589 33.7735 147.167 33.627 147.81 33.627C148.452 33.627 149.03 33.7735 149.541 34.0666C150.052 34.3596 150.457 34.7848 150.755 35.3422C151.052 35.8996 151.201 36.5746 151.201 37.3672C151.201 38.1565 151.052 38.8294 150.755 39.3859C150.457 39.9424 150.052 40.3669 149.541 40.6592C149.03 40.9515 148.452 41.0977 147.81 41.0977ZM147.81 39.7742C148.186 39.7742 148.515 39.6819 148.797 39.4973C149.078 39.3128 149.297 39.0412 149.454 38.6825C149.61 38.3239 149.689 37.8855 149.689 37.3672C149.689 36.8441 149.61 36.4029 149.454 36.0434C149.297 35.6839 149.078 35.4118 148.797 35.2273C148.515 35.0427 148.186 34.9504 147.81 34.9504C147.433 34.9504 147.104 35.0431 146.822 35.2284C146.54 35.4137 146.32 35.6861 146.162 36.0456C146.005 36.4051 145.926 36.8456 145.926 37.3672C145.926 37.8855 146.005 38.3236 146.162 38.6814C146.32 39.0393 146.54 39.3109 146.822 39.4962C147.104 39.6815 147.433 39.7742 147.81 39.7742ZM152.296 36.7542L152.149 33.7246H153.56L153.413 36.7542H152.296ZM154.706 41V33.7246H157.545C158.097 33.7246 158.567 33.8223 158.954 34.0178C159.341 34.2132 159.637 34.4886 159.841 34.8438C160.044 35.199 160.146 35.6151 160.146 36.092C160.146 36.5724 160.043 36.9857 159.837 37.3318C159.63 37.6778 159.331 37.9432 158.938 38.1277C158.545 38.3122 158.069 38.4045 157.51 38.4045H155.588V37.197H157.273C157.577 37.197 157.827 37.1553 158.023 37.072C158.22 36.9887 158.367 36.8652 158.464 36.7016C158.561 36.538 158.609 36.3348 158.609 36.092C158.609 35.8462 158.561 35.6392 158.464 35.4708C158.367 35.3024 158.22 35.1742 158.022 35.0861C157.825 34.9981 157.574 34.954 157.269 34.954H156.198V41H154.706ZM158.754 41L156.986 37.6894H158.6L160.408 41H158.754ZM160.484 34.9616V33.7246H166.425V34.9616H164.203V41H162.711V34.9616H160.484ZM165.64 41L168.129 33.7246H170.079L172.631 41H170.974L169.808 37.4905C169.666 37.0372 169.523 36.5409 169.379 36.0015C169.236 35.4621 169.084 34.8744 168.924 34.2383H169.248C169.093 34.8774 168.948 35.4681 168.813 36.0105C168.679 36.5529 168.544 37.0462 168.411 37.4905L167.286 41H165.64ZM167.195 39.3115V38.1424H171.076V39.3115H167.195Z" fill="#737686"/>
<path d="M290.919 39.355V37.9973C291.067 37.7272 291.214 37.4779 291.358 37.2494C291.502 37.0208 291.66 36.7923 291.832 36.5639C292.003 36.3354 292.201 36.0857 292.423 35.8148L294.203 33.7246H296.026L292.954 37.2788L292.832 37.2344L290.919 39.355ZM289.818 41V33.7246H291.31V35.7138L291.282 37.566L291.31 38.2943V41H289.818ZM294.341 41L292.184 37.7181L293.124 36.6052L296.102 41H294.341ZM299.512 41.1014C298.911 41.1014 298.385 40.9904 297.934 40.7684C297.483 40.5464 297.133 40.2362 296.884 39.8376C296.635 39.4391 296.51 38.9759 296.51 38.4479V33.7246H298.002V38.3246C298.002 38.6079 298.065 38.859 298.19 39.0781C298.316 39.2972 298.492 39.4695 298.718 39.5949C298.943 39.7204 299.208 39.7832 299.512 39.7832C299.818 39.7832 300.084 39.7204 300.31 39.5949C300.536 39.4695 300.711 39.2972 300.836 39.0781C300.961 38.859 301.023 38.6079 301.023 38.3246V33.7246H302.515V38.4479C302.515 38.9759 302.39 39.4391 302.14 39.8376C301.89 40.2362 301.54 40.5464 301.089 40.7684C300.639 40.9904 300.113 41.1014 299.512 41.1014ZM306.508 41.0977C305.864 41.0977 305.287 40.9511 304.777 40.6579C304.268 40.3647 303.866 39.9398 303.572 39.3833C303.278 38.8268 303.13 38.1548 303.13 37.3672C303.13 36.5746 303.279 35.8996 303.576 35.3422C303.872 34.7848 304.276 34.3596 304.786 34.0666C305.297 33.7735 305.871 33.627 306.508 33.627C306.922 33.627 307.307 33.6846 307.664 33.8C308.021 33.9153 308.338 34.0838 308.614 34.3054C308.89 34.5271 309.117 34.7979 309.294 35.118C309.47 35.4381 309.586 35.8029 309.641 36.2124H308.133C308.098 36.0127 308.035 35.8352 307.943 35.6798C307.851 35.5244 307.736 35.3922 307.596 35.283C307.457 35.1739 307.298 35.0912 307.119 35.0349C306.941 34.9786 306.748 34.9504 306.54 34.9504C306.162 34.9504 305.83 35.0448 305.544 35.2337C305.259 35.4225 305.037 35.6967 304.879 36.0562C304.722 36.4157 304.643 36.8527 304.643 37.3672C304.643 37.8907 304.723 38.3318 304.883 38.6905C305.043 39.0491 305.265 39.3194 305.549 39.5013C305.833 39.6832 306.161 39.7742 306.535 39.7742C306.742 39.7742 306.935 39.7457 307.113 39.6886C307.29 39.6315 307.45 39.5488 307.591 39.4404C307.732 39.3321 307.849 39.1998 307.943 39.0437C308.037 38.8875 308.102 38.7104 308.138 38.5122H309.646C309.605 38.8499 309.505 39.1731 309.345 39.4819C309.185 39.7907 308.97 40.0668 308.702 40.3103C308.434 40.5538 308.116 40.7459 307.748 40.8866C307.381 41.0273 306.967 41.0977 306.508 41.0977ZM310.227 41V33.7246H311.719V36.6635H314.888V33.7246H316.38V41H314.888V37.9004H311.719V41H310.227ZM317.197 41V33.7246H318.689V39.7631H321.827V41H317.197ZM323.844 33.7246V41H322.352V33.7246H323.844Z" fill="#737686"/>
</svg>
